<svg xmlns="http://www.w3.org/2000/svg" fill="none" viewBox="0 0 25 25" height="25" width="25">
<path fill="white" d="M11.3499 1.28387C11.2444 1.30996 10.9733 1.35553 10.7474 1.38525C10.2831 1.44624 9.99024 1.50629 9.51512 1.638C9.33438 1.68809 9.11843 1.74253 9.03524 1.75904C8.95204 1.7755 8.87044 1.81094 8.85401 1.8377C8.83752 1.8645 8.7861 1.88641 8.73971 1.88641C8.69332 1.88641 8.56538 1.92609 8.4554 1.97458C8.34543 2.02308 8.20615 2.08324 8.14591 2.10828C7.56547 2.34958 6.51802 2.90875 6.48461 2.99511C6.47454 3.02104 6.44337 3.04228 6.41528 3.04228C6.3713 3.04228 5.62092 3.56243 5.5444 3.64598C5.52934 3.66244 5.41844 3.74951 5.29795 3.83951C5.04711 4.02687 3.73705 5.34737 3.73705 5.41287C3.73705 5.43676 3.70566 5.48899 3.66727 5.52901C3.53588 5.6659 3.02506 6.39806 3.02506 6.44942C3.02506 6.47765 3.00391 6.50897 2.97812 6.5191C2.89219 6.55267 2.33579 7.60535 2.09569 8.18868C2.07077 8.24922 2.01091 8.38919 1.96266 8.49972C1.91441 8.61024 1.87492 8.73882 1.87492 8.78544C1.87492 8.83206 1.85312 8.88374 1.82645 8.90031C1.79983 8.91682 1.76456 8.99884 1.74818 9.08244C1.73175 9.16605 1.67759 9.38308 1.62775 9.56472C1.34531 10.5941 1.24891 11.3527 1.25001 12.537C1.25116 13.7485 1.35259 14.5614 1.62775 15.5643C1.67759 15.7459 1.73175 15.9629 1.74818 16.0465C1.76456 16.1301 1.79983 16.2122 1.82645 16.2287C1.85312 16.2452 1.87492 16.2969 1.87492 16.3435C1.87492 16.3902 1.91441 16.5187 1.96266 16.6293C2.01091 16.7398 2.07077 16.8798 2.09569 16.9403C2.33579 17.5236 2.89219 18.5763 2.97812 18.6099C3.00391 18.62 3.02506 18.6513 3.02506 18.6796C3.02506 18.7309 3.53588 19.4631 3.66727 19.6C3.70566 19.64 3.73705 19.694 3.73705 19.72C3.73705 19.7825 5.31673 21.3712 5.37889 21.3712C5.40535 21.3712 5.45962 21.4027 5.49944 21.4413C5.6156 21.5539 6.36062 22.0867 6.40186 22.0867C6.42256 22.0867 6.47837 22.1215 6.52591 22.1641C6.69514 22.3155 7.59784 22.7928 8.14591 23.0207C8.20615 23.0457 8.34543 23.1059 8.4554 23.1544C8.56538 23.2029 8.69332 23.2426 8.73971 23.2426C8.7861 23.2426 8.83752 23.2645 8.85401 23.2913C8.87044 23.318 8.95204 23.3535 9.03524 23.3699C9.11843 23.3864 9.33438 23.4409 9.51512 23.491C9.86279 23.5874 10.2205 23.6691 10.5146 23.7195L10.6926 23.75V19.836V15.922H9.32792C8.57732 15.922 7.9242 15.907 7.87656 15.8886C7.80021 15.8592 7.78991 15.6594 7.78991 14.2098V12.5645H9.24128H10.6926L10.6966 11.0371C10.6988 10.197 10.7216 9.38583 10.7473 9.23447C10.773 9.0831 10.8114 8.85402 10.8327 8.72533C10.8539 8.5967 10.8901 8.49141 10.9129 8.49141C10.9358 8.49141 10.9674 8.41088 10.9832 8.31252C11.0226 8.06665 11.1488 7.72082 11.199 7.72082C11.2217 7.72082 11.2403 7.69484 11.2403 7.66314C11.2403 7.54183 11.6255 7.00814 11.9113 6.73332C12.2336 6.4236 12.6498 6.12522 12.7601 6.12484C12.7978 6.12472 12.8286 6.09985 12.8286 6.06957C12.8286 6.0393 12.8557 6.01453 12.8888 6.01453C12.9219 6.01453 13.0267 5.98118 13.1216 5.94045C13.678 5.70151 14.5854 5.55218 15.2576 5.58889C16.1356 5.63689 17.1795 5.74494 17.2778 5.79805C17.3301 5.82629 17.4102 5.84941 17.4558 5.84941C17.5042 5.84941 17.5402 5.90093 17.5422 5.97325C17.5442 6.04134 17.5503 6.67178 17.5559 7.37423L17.5661 8.65136L16.7446 8.67447C15.8751 8.69891 15.497 8.75032 15.1823 8.88699C14.8297 9.04012 14.4169 9.53632 14.4169 9.80712C14.4169 9.87059 14.3923 9.92249 14.3621 9.92249C14.3271 9.92249 14.3074 10.3995 14.3074 11.2435V12.5645H15.8572H17.4071L17.3616 13.0461C17.3366 13.311 17.2924 13.6144 17.2634 13.7204C17.2344 13.8263 17.2106 14.0182 17.2104 14.1469C17.2103 14.2756 17.1891 14.3809 17.1634 14.3809C17.1378 14.3809 17.1019 14.5728 17.0838 14.8074C17.0445 15.3154 16.9369 15.8237 16.8569 15.8799C16.8252 15.9022 16.2386 15.9207 15.5533 15.9212L14.3074 15.922V19.836V23.75L14.5127 23.7143C14.6257 23.6947 14.8107 23.6646 14.9238 23.6475C15.037 23.6303 15.1432 23.5941 15.1598 23.567C15.1765 23.5399 15.2475 23.5178 15.3175 23.5178C15.4551 23.5178 15.973 23.3738 16.1276 23.2925C16.1799 23.265 16.2502 23.2426 16.2837 23.2426C16.3172 23.2426 16.4346 23.2029 16.5446 23.1544C16.6546 23.1059 16.7938 23.0457 16.8541 23.0207C17.4022 22.7928 18.3049 22.3155 18.4741 22.1641C18.5216 22.1215 18.5774 22.0867 18.5981 22.0867C18.6394 22.0867 19.3844 21.5539 19.5006 21.4413C19.5404 21.4027 19.5947 21.3712 19.6211 21.3712C19.6833 21.3712 21.263 19.7825 21.263 19.72C21.263 19.694 21.2943 19.64 21.3327 19.6C21.4448 19.4832 21.9749 18.7345 21.9749 18.693C21.9749 18.6722 22.0096 18.6162 22.0519 18.5684C22.2026 18.3983 22.6776 17.4911 22.9043 16.9403C22.9292 16.8798 22.9891 16.7398 23.0373 16.6293C23.0856 16.5187 23.1251 16.3902 23.1251 16.3435C23.1251 16.2969 23.1469 16.2452 23.1736 16.2287C23.2002 16.2122 23.2354 16.1301 23.2518 16.0465C23.2682 15.9629 23.3224 15.7459 23.3723 15.5643C23.6474 14.5614 23.7488 13.7485 23.75 12.537C23.7511 11.3527 23.6547 10.5941 23.3723 9.56472C23.3224 9.38308 23.2682 9.16605 23.2518 9.08244C23.2354 8.99884 23.2002 8.91682 23.1736 8.90031C23.1469 8.88374 23.1251 8.83206 23.1251 8.78544C23.1251 8.73882 23.0856 8.61024 23.0373 8.49972C22.9891 8.38919 22.9292 8.24922 22.9043 8.18868C22.6776 7.63788 22.2026 6.73068 22.0519 6.5606C22.0096 6.51282 21.9749 6.45674 21.9749 6.43593C21.9749 6.39448 21.4448 5.64575 21.3327 5.52901C21.2943 5.48899 21.263 5.43736 21.263 5.41425C21.263 5.34902 20.006 4.08191 19.7294 3.8684C19.5939 3.76377 19.4707 3.66414 19.4556 3.64708C19.3843 3.56639 18.6296 3.04228 18.5847 3.04228C18.5566 3.04228 18.5255 3.02104 18.5154 2.99511C18.482 2.90875 17.4345 2.34958 16.8541 2.10828C16.7938 2.08324 16.6546 2.02308 16.5446 1.97458C16.4346 1.92609 16.3067 1.88641 16.2603 1.88641C16.2139 1.88641 16.1625 1.8645 16.146 1.8377C16.1296 1.81094 16.048 1.7755 15.9648 1.75904C15.8816 1.74253 15.6656 1.68809 15.4849 1.638C14.5501 1.37898 13.7325 1.27143 12.5548 1.25266C11.9975 1.2438 11.4553 1.25783 11.3499 1.28387Z" clip-rule="evenodd" fill-rule="evenodd"></path>
</svg>
