<svg xmlns="http://www.w3.org/2000/svg" fill="none" viewBox="0 0 25 25" height="25" width="25">
<path fill="white" d="M12.4999 3.27707C15.5038 3.27707 15.8596 3.28854 17.046 3.34267C18.1428 3.39273 18.7385 3.57596 19.1349 3.73002C19.6236 3.91037 20.0656 4.19794 20.4284 4.57158C20.8021 4.93447 21.0896 5.37648 21.27 5.86512C21.4241 6.26154 21.6073 6.85722 21.6573 7.95408C21.7115 9.14039 21.7229 9.49617 21.7229 12.5002C21.7229 15.5041 21.7115 15.8598 21.6573 17.0462C21.6073 18.1431 21.424 18.7387 21.27 19.1352C21.0828 19.6204 20.7962 20.061 20.4285 20.4287C20.0607 20.7965 19.6201 21.0831 19.1349 21.2703C18.7385 21.4244 18.1428 21.6076 17.046 21.6576C15.8599 21.7118 15.5041 21.7232 12.4999 21.7232C9.49575 21.7232 9.14011 21.7118 7.95389 21.6576C6.85704 21.6076 6.26141 21.4243 5.86495 21.2703C5.37631 21.0899 4.9343 20.8024 4.57142 20.4287C4.19778 20.0658 3.91022 19.6238 3.72987 19.1352C3.5758 18.7388 3.39253 18.1431 3.34252 17.0462C3.28839 15.86 3.27692 15.5041 3.27692 12.5002C3.27692 9.49617 3.28839 9.14048 3.34252 7.95408C3.39258 6.85722 3.5758 6.26158 3.72987 5.86512C3.91024 5.37645 4.19783 4.93443 4.57151 4.57154C4.93439 4.19789 5.3764 3.91033 5.86504 3.72998C6.26145 3.57591 6.85713 3.39264 7.95398 3.34262C9.14028 3.2885 9.49606 3.27702 12.5 3.27702L12.4999 3.27707ZM12.4999 1.25C9.4447 1.25 9.06145 1.26295 7.86172 1.3177C6.66425 1.37236 5.8465 1.56251 5.13093 1.84063C4.38028 2.12312 3.70028 2.56594 3.13835 3.13823C2.56594 3.70013 2.12299 4.38013 1.8404 5.13082C1.56251 5.84645 1.37236 6.66421 1.31792 7.86168C1.26295 9.06144 1.25 9.44468 1.25 12.5C1.25 15.5554 1.26295 15.9386 1.31792 17.1384C1.37258 18.3358 1.56273 19.1536 1.84085 19.8692C2.12333 20.6198 2.56616 21.2998 3.13844 21.8618C3.70036 22.4341 4.38036 22.8769 5.13101 23.1594C5.84664 23.4375 6.66439 23.6276 7.86181 23.6823C9.06173 23.737 9.44484 23.75 12.5001 23.75C15.5554 23.75 15.9387 23.737 17.1384 23.6823C18.3359 23.6276 19.1536 23.4375 19.8692 23.1594C20.6165 22.8703 21.2952 22.4284 21.8618 21.8618C22.4284 21.2952 22.8703 20.6165 23.1594 19.8692C23.4375 19.1535 23.6276 18.3358 23.6823 17.1384C23.737 15.9384 23.75 15.5553 23.75 12.5C23.75 9.44473 23.737 9.06144 23.6823 7.86168C23.6276 6.66421 23.4375 5.84645 23.1594 5.13087C22.8769 4.38021 22.4341 3.70021 21.8618 3.13827C21.2998 2.56587 20.6198 2.12295 19.8691 1.84041C19.1535 1.56251 18.3357 1.37236 17.1382 1.31792C15.9385 1.26295 15.5552 1.25 12.4999 1.25ZM12.4999 6.72293C11.3573 6.72293 10.2403 7.06174 9.29033 7.69653C8.3403 8.33132 7.59985 9.23357 7.1626 10.2892C6.72536 11.3448 6.61095 12.5064 6.83386 13.627C7.05677 14.7477 7.60697 15.777 8.4149 16.585C9.22283 17.3929 10.2522 17.9431 11.3728 18.166C12.4934 18.3889 13.655 18.2745 14.7106 17.8373C15.7662 17.4 16.6685 16.6596 17.3033 15.7095C17.938 14.7595 18.2769 13.6426 18.2769 12.5C18.2769 10.9678 17.6682 9.49839 16.5848 8.41498C15.5014 7.33158 14.032 6.72293 12.4999 6.72293ZM12.4999 16.2499C11.7582 16.2499 11.0332 16.03 10.4165 15.6179C9.79984 15.2059 9.31921 14.6202 9.03539 13.935C8.75157 13.2498 8.67731 12.4958 8.82201 11.7684C8.96671 11.0409 9.32386 10.3728 9.8483 9.84832C10.3727 9.32388 11.0409 8.96674 11.7683 8.82205C12.4958 8.67736 13.2497 8.75162 13.935 9.03545C14.6202 9.31928 15.2058 9.79992 15.6179 10.4166C16.0299 11.0333 16.2498 11.7583 16.2498 12.5C16.2498 13.4945 15.8547 14.4484 15.1515 15.1516C14.4482 15.8549 13.4944 16.2499 12.4999 16.2499ZM19.8552 6.49478C19.8552 7.24036 19.2508 7.84476 18.5052 7.84476C17.7596 7.84476 17.1552 7.24036 17.1552 6.49478C17.1552 5.74921 17.7596 5.1448 18.5052 5.1448C19.2508 5.1448 19.8552 5.74921 19.8552 6.49478Z" clip-rule="evenodd" fill-rule="evenodd"></path>
</svg>
