<svg xmlns="http://www.w3.org/2000/svg" fill="none" viewBox="0 0 20 25" height="25" width="20">
<path fill="white" d="M8.15447 17.0859C8.94588 17.1114 9.66071 18.1581 11.7541 18.1581C15.6856 18.1836 18.3918 15.1712 19.2342 11.2141C22.1701 -2.49516 2.18059 -3.59293 0.138242 7.69107C-0.346817 10.3461 0.444594 13.4097 2.51248 14.4053C4.0953 15.1712 4.19742 12.9757 3.71236 12.0311C1.56789 7.84424 4.14636 4.06589 7.51624 2.99366C10.6819 1.97248 12.9285 2.81495 14.6389 4.57648C16.8345 6.8486 15.8388 13.0267 13.2348 14.9925C12.3158 15.6818 10.6308 15.8349 9.76283 15.018C7.97577 13.3586 10.7329 9.83554 10.3245 7.25707C9.916 4.70413 5.88236 5.08707 5.67812 8.83989C5.576 10.7546 6.13765 11.3162 5.70365 13.2309C5.01436 16.2945 2.92095 22.5492 4.40165 25C6.57165 23.9788 7.64389 17.8518 8.15447 17.0859Z" clip-rule="evenodd" fill-rule="evenodd"></path>
</svg>
