<svg xmlns="http://www.w3.org/2000/svg" fill="none" viewBox="0 0 25 25" height="25" width="25">
<path fill="white" d="M20.4052 6.9645C19.3649 6.74198 18.4229 6.19299 17.7165 5.39758C17.0101 4.60216 16.5762 3.60191 16.4781 2.54263V2.08325H12.8896V16.3249C12.8874 16.9554 12.6876 17.5694 12.3185 18.0805C11.9494 18.5916 11.4293 18.9743 10.8315 19.1746C10.2337 19.375 9.58812 19.383 8.98552 19.1975C8.38291 19.012 7.85357 18.6424 7.47188 18.1405C7.08425 17.6303 6.86923 17.0099 6.85799 16.3692C6.84674 15.7285 7.03986 15.1009 7.40934 14.5774C7.77882 14.0539 8.30545 13.6617 8.91287 13.4576C9.52028 13.2536 10.1769 13.2483 10.7875 13.4426V9.79679C9.42589 9.60856 8.0395 9.85064 6.82224 10.4892C5.60499 11.1277 4.61775 12.1307 3.99862 13.3579C3.3795 14.5852 3.15945 15.9752 3.36926 17.3337C3.57906 18.6921 4.20823 19.951 5.16875 20.9343C6.08475 21.8715 7.25926 22.5146 8.54235 22.7813C9.82544 23.048 11.1589 22.9264 12.3726 22.4318C13.5862 21.9373 14.6249 21.0923 15.3562 20.0048C16.0874 18.9173 16.478 17.6365 16.4781 16.326V9.04888C17.9284 10.0857 19.6672 10.6416 21.45 10.6385V7.07283C21.0989 7.07327 20.7487 7.03696 20.4052 6.9645Z"></path>
</svg>
